<svg xmlns="http://www.w3.org/2000/svg" viewBox="0 0 860 252"
     width="860" height="252" role="img" aria-label="Full project index">
  <title>Full project index</title>
  <defs>
    <linearGradient id="ibg" x1="0" y1="0" x2="1" y2="1">
      <stop offset="0%" stop-color="#0d1117"/><stop offset="100%" stop-color="#161b28"/>
    </linearGradient>
    <linearGradient id="iac" x1="0" y1="0" x2="1" y2="0">
      <stop offset="0%" stop-color="#6929C4"/><stop offset="50%" stop-color="#1F6FEB"/>
      <stop offset="100%" stop-color="#00D4AA"/>
    </linearGradient>
    <style>
      .ttl  { font-family:"Segoe UI",Inter,Helvetica,sans-serif; font-size:16px;
               font-weight:700; fill:#7EE7C7; }
      .hd   { font-family:"JetBrains Mono",Consolas,monospace; font-size:10px;
               font-weight:700; fill:#6E7A91; letter-spacing:1.4px; }
      .nm   { font-family:"Segoe UI",Inter,Helvetica,sans-serif; font-size:13.5px;
               font-weight:600; fill:#ffffff; }
      .dm   { font-family:"Segoe UI",Inter,Helvetica,sans-serif; font-size:12.5px;
               fill:#79C0FF; }
      .st   { font-family:"JetBrains Mono",Consolas,monospace; font-size:11.5px;
               fill:#8B949E; }
      .sc   { font-family:"JetBrains Mono",Consolas,monospace; font-size:12px;
               font-weight:700; fill:#F0A868; }
      .lv   { font-family:"JetBrains Mono",Consolas,monospace; font-size:10.5px;
               font-weight:700; fill:#7EE7C7; }
      .dash { font-family:"JetBrains Mono",Consolas,monospace; font-size:12px; fill:#3d4759; }
    </style>
  </defs>

  <rect width="860" height="252" rx="12" fill="url(#ibg)"/>
  <rect x="1" y="1" width="858" height="250" rx="11" fill="none"
        stroke="url(#iac)" stroke-opacity="0.4" stroke-width="2"/>

  <text x="26" y="38" class="ttl">◈ Project Index</text>

  <text x="26" y="74" class="hd">PROJECT</text>
  <text x="300" y="74" class="hd">DOMAIN</text>
  <text x="452" y="74" class="hd">STACK</text>
  <text x="700" y="74" class="hd">STARS</text>
  <text x="800" y="74" class="hd">STATUS</text>
  <line x1="22" y1="84" x2="838" y2="84" stroke="#30363D"/>

  <rect x="14" y="74" width="832" height="34" rx="6" fill="#ffffff" fill-opacity="0.022"/>
  <circle cx="32" cy="91" r="4.6" fill="#3572A5"/>
  <text x="46" y="96" class="nm">MF Scope</text>
  <text x="300" y="96" class="dm">FinTech</text>
  <text x="452" y="96" class="st">Python · Data · Pandas · Plotly</text>
  <text x="702" y="96" class="dash">—</text>
  <text x="802" y="96" class="dash">—</text>
  <circle cx="32" cy="125" r="4.6" fill="#3572A5"/>
  <text x="46" y="130" class="nm">Anomaly Terminal</text>
  <text x="300" y="130" class="dm">AI/ML</text>
  <text x="452" y="130" class="st">ML · Python · Finance</text>
  <text x="702" y="130" class="dash">—</text>
  <text x="802" y="130" class="dash">—</text>
  <rect x="14" y="142" width="832" height="34" rx="6" fill="#ffffff" fill-opacity="0.022"/>
  <circle cx="32" cy="159" r="4.6" fill="#3572A5"/>
  <text x="46" y="164" class="nm">sahayAK</text>
  <text x="300" y="164" class="dm">AI/NLP</text>
  <text x="452" y="164" class="st">NLP · Voice · AI</text>
  <text x="702" y="164" class="dash">—</text>
  <text x="802" y="164" class="dash">—</text>
  <circle cx="32" cy="193" r="4.6" fill="#F1E05A"/>
  <text x="46" y="198" class="nm">PayRozgar</text>
  <text x="300" y="198" class="dm">FinTech</text>
  <text x="452" y="198" class="st">React · Node.js · Express</text>
  <text x="702" y="198" class="dash">—</text>
  <text x="802" y="198" class="dash">—</text>
</svg>
